# xmcd
#
# Track frame offsets: 
#        150
#        13395
#        24816
#        39836
#        54740
#        67569
#        81145
#        95700
#        110448
#        122972
#        136121
#        149535
#        162741
#        179337
#        189829
#        202132
#        215156
#        227027
#        239490
#        251718
#        262389
#        273180
#        284802
#        296658
#        310440
#
# Disc length: 4291 seconds
#
# Revision: 1
# Processed by: cddbd v1.5.2PL0 Copyright (c) Steve Scherf et al.
# Submitted via: ExactAudioCopyFreeDBPlugin 1.0
#
DISCID=8b10c119
DTITLE=Various Artist - Lonesome Whistle:  An Anthology of American R
DTITLE=ailroad Song
DYEAR=2012
DGENRE=Trains
TTITLE0=Alabama Sheiks - Travelin' Railroad Man Blues (1931)
TTITLE1=Lullaby Larkers (Cliff Carlisle) - True and Trembling Brakeman
TTITLE1=(1931)
TTITLE2=Walter Davis - Railroad Man Blues (1931)
TTITLE3=King Solomon Hill - The Gone Dead Train (1932)
TTITLE4=Big Bill (Big Bill Broonzy) - Too-Too Train Blues (1932)
TTITLE5=Blind Willie McTell - B and O Blues No. 2 (1933)
TTITLE6=Sam McGee - Railroad Blues (1934)
TTITLE7=Memphis Minnie - Chickasaw Train Blues (Low Down Dirty Thing) 
TTITLE7=(1934)
TTITLE8=The Delmore Brothers - Blow Yo' Whistle, Freight Train (1935)
TTITLE9=Bumble Bee Slim - B and O Line Blues (1935)
TTITLE10=Dallas Jamboree Jug Band - Flying Crow Blues (1935)
TTITLE11=Meade Lux Lewis - Honky Tonk Train Blues (1935)
TTITLE12=Monroe Brothers - New River Train (1936)
TTITLE13=Bill Carlisle - The Heavenly Train (1936)
TTITLE14=Crowder Brothers - Depot Blues (1936)
TTITLE15=Monroe Brothers - My Saviour's Train (1936)
TTITLE16=Little Brother Montgomery - A. and V. Railroad Blues (1936)
TTITLE17=Black Ivory King - The Flying Crow (1937)
TTITLE18=Blind Norris - The Katy Blues (1937)
TTITLE19=Wade Mainer - Train Carry My Girl Back Home (1937)
TTITLE20=Robert Johnson - Love in Vain (1937)
TTITLE21=Wade Mainer, Zeke Morris, and Steve Ledford - Riding on That 
TTITLE21=Train Forty-Five (1937)
TTITLE22=Golden Gate Jubilee Quartet - Golden Gate Gospel Train (1937)
TTITLE23=Rooselvelt Antrim - Station Boy Blues (1937)
TTITLE24=Shelly Lee Alley - Train Whistle Blues (1937)
EXTD=
EXTT0=
EXTT1=
EXTT2=
EXTT3=
EXTT4=
EXTT5=
EXTT6=
EXTT7=
EXTT8=
EXTT9=
EXTT10=
EXTT11=
EXTT12=
EXTT13=
EXTT14=
EXTT15=
EXTT16=
EXTT17=
EXTT18=
EXTT19=
EXTT20=
EXTT21=
EXTT22=
EXTT23=
EXTT24=
PLAYORDER=
